<svg version="1.1" id="Layer_1" xmlns="http://www.w3.org/2000/svg" xmlns:xlink="http://www.w3.org/1999/xlink" x="0px" y="0px"
	 width="100%" viewBox="0 0 512 512" enable-background="new 0 0 512 512" xml:space="preserve">
<path fill="#000000" opacity="1.000000" stroke="none" 
	d="
M464.000000,513.000000 
	C309.370941,513.000000 155.241882,513.000000 1.056416,513.000000 
	C1.056416,342.412598 1.056416,171.825165 1.056416,1.118870 
	C171.545700,1.118870 342.091522,1.118870 512.818665,1.118870 
	C512.818665,171.666504 512.818665,342.333252 512.818665,513.000000 
	C496.825104,513.000000 480.662567,513.000000 464.000000,513.000000 
M147.131622,291.299408 
	C152.420151,291.531464 157.804657,292.513031 162.978653,291.850586 
	C176.747009,290.087708 187.574219,283.332581 192.789597,270.044708 
	C197.790848,257.302399 195.804764,245.057724 186.815460,234.577133 
	C178.041458,224.347549 166.361206,220.946411 153.192764,221.790817 
	C134.216080,223.007675 120.187080,236.154587 118.302162,254.560242 
	C116.575638,271.419250 127.975517,286.293182 147.131622,291.299408 
M213.796417,278.434967 
	C213.796417,273.685272 213.796417,268.935577 213.796417,263.985870 
	C220.757812,263.985870 227.083588,263.757935 233.375000,264.122681 
	C235.300339,264.234314 237.672653,265.532654 238.904572,267.048157 
	C242.676712,271.688690 246.458069,276.439026 249.366135,281.633575 
	C252.673141,287.540649 257.150970,288.915558 263.683197,287.285492 
	C258.069977,279.575348 252.620651,272.090363 247.059998,264.452423 
	C248.067383,263.901825 248.753555,263.463318 249.488831,263.134644 
	C257.697449,259.464905 261.952759,252.984329 260.848602,245.800613 
	C259.590240,237.613464 254.029953,231.878510 244.764206,231.414932 
	C231.860977,230.769348 218.901276,231.252411 205.814789,231.252411 
	C205.814789,250.155579 205.814789,268.756317 205.814789,287.523254 
	C208.469421,287.523254 210.878738,287.523254 213.796417,287.523254 
	C213.796417,284.653137 213.796417,282.031219 213.796417,278.434967 
M287.513336,287.800598 
	C299.807129,287.800598 312.100922,287.800598 324.522888,287.800598 
	C324.522888,285.453766 324.522888,283.598602 324.522888,281.375427 
	C310.571991,281.375427 296.976013,281.375427 283.209656,281.375427 
	C283.209656,274.745148 283.209656,268.494598 283.209656,261.925781 
	C293.530273,261.925781 303.632538,261.925781 313.891724,261.925781 
	C313.891724,259.568542 313.891724,257.544769 313.891724,255.149017 
	C303.402191,255.149017 293.324829,255.149017 283.224426,255.149017 
	C283.224426,249.001633 283.224426,243.233429 283.224426,237.015747 
	C297.198914,237.015747 310.938599,237.015747 324.942200,237.015747 
	C324.827240,234.804840 324.736725,233.064041 324.646210,231.322891 
	C307.654663,231.322891 291.074707,231.322891 274.380005,231.322891 
	C274.380005,250.179657 274.380005,268.750427 274.380005,287.800598 
	C278.599487,287.800598 282.559509,287.800598 287.513336,287.800598 
M354.592651,236.871399 
	C346.044312,253.670990 337.495972,270.470612 328.836243,287.489105 
	C338.249725,288.142731 338.250031,288.142883 342.091949,280.470398 
	C342.760162,279.135925 343.590271,277.854584 344.056122,276.452545 
	C345.001221,273.608063 346.858002,272.898438 349.742432,272.982605 
	C356.890625,273.191132 364.108490,273.624573 371.186462,272.889618 
	C378.247284,272.156494 381.917725,274.583588 384.528381,281.145325 
	C387.633240,288.949249 388.369965,288.830658 396.994904,287.043396 
	C388.321930,269.990356 379.580322,253.062729 371.137665,235.987320 
	C369.401367,232.475662 367.652466,230.851501 363.432831,230.865509 
	C359.049774,230.880081 356.150513,231.811020 354.592651,236.871399 
M61.136852,275.481262 
	C61.136852,279.430939 61.136852,283.380615 61.136852,287.556641 
	C78.409325,287.556641 95.132523,287.556641 111.964600,287.556641 
	C111.964600,285.426666 111.964600,283.528931 111.964600,281.181244 
	C97.528702,281.181244 83.437462,281.181244 69.071045,281.181244 
	C69.071045,264.267761 69.071045,247.805725 69.071045,231.320190 
	C66.353622,231.320190 63.937469,231.320190 61.136852,231.320190 
	C61.136852,245.895950 61.136852,260.191162 61.136852,275.481262 
M435.498047,281.406281 
	C427.051666,281.406281 418.605286,281.406281 409.598236,281.406281 
	C409.598236,264.386597 409.598236,247.832047 409.598236,231.181976 
	C406.723846,231.181976 404.419250,231.181976 401.975677,231.181976 
	C401.975677,250.077652 401.975677,268.820435 401.975677,287.497803 
	C419.033691,287.497803 435.792511,287.497803 452.627686,287.497803 
	C452.627686,285.415100 452.627686,283.651947 452.627686,281.406311 
	C447.094360,281.406311 441.795563,281.406311 435.498047,281.406281 
M106.352257,246.058792 
	C108.913567,241.205505 111.474876,236.352234 114.784859,230.080338 
	C110.544868,231.150375 106.314835,231.002762 105.404480,232.668945 
	C102.316772,238.320175 100.403160,244.612930 98.056816,250.620163 
	C102.539207,252.224457 104.782486,250.395126 106.352257,246.058792 
M308.212067,221.964737 
	C302.652435,220.970367 298.287750,222.676300 294.707947,229.096420 
	C301.535461,226.791946 307.343048,224.831711 313.150665,222.871460 
	C313.083344,222.569199 313.016022,222.266953 312.948730,221.964691 
	C311.652618,221.964691 310.356537,221.964691 308.212067,221.964737 
z"/>
<path fill="#F7F7F7" opacity="1.000000" stroke="none" 
	d="
M146.728485,291.211426 
	C127.975517,286.293182 116.575638,271.419250 118.302162,254.560242 
	C120.187080,236.154587 134.216080,223.007675 153.192764,221.790817 
	C166.361206,220.946411 178.041458,224.347549 186.815460,234.577133 
	C195.804764,245.057724 197.790848,257.302399 192.789597,270.044708 
	C187.574219,283.332581 176.747009,290.087708 162.978653,291.850586 
	C157.804657,292.513031 152.420151,291.531464 146.728485,291.211426 
M144.949295,231.127075 
	C144.200882,231.485458 143.433411,231.809067 142.706924,232.207428 
	C130.229370,239.049103 124.486046,253.862396 129.295151,266.775452 
	C134.122803,279.738373 148.392746,287.542389 162.341309,284.847931 
	C176.382172,282.135651 186.600784,269.515442 185.958252,255.680420 
	C185.041870,235.948959 165.457352,223.883438 144.949295,231.127075 
z"/>
<path fill="#F5F5F5" opacity="1.000000" stroke="none" 
	d="
M213.796417,278.922119 
	C213.796417,282.031219 213.796417,284.653137 213.796417,287.523254 
	C210.878738,287.523254 208.469421,287.523254 205.814789,287.523254 
	C205.814789,268.756317 205.814789,250.155579 205.814789,231.252411 
	C218.901276,231.252411 231.860977,230.769348 244.764206,231.414932 
	C254.029953,231.878510 259.590240,237.613464 260.848602,245.800613 
	C261.952759,252.984329 257.697449,259.464905 249.488831,263.134644 
	C248.753555,263.463318 248.067383,263.901825 247.059998,264.452423 
	C252.620651,272.090363 258.069977,279.575348 263.683197,287.285492 
	C257.150970,288.915558 252.673141,287.540649 249.366135,281.633575 
	C246.458069,276.439026 242.676712,271.688690 238.904572,267.048157 
	C237.672653,265.532654 235.300339,264.234314 233.375000,264.122681 
	C227.083588,263.757935 220.757812,263.985870 213.796417,263.985870 
	C213.796417,268.935577 213.796417,273.685272 213.796417,278.922119 
M213.792191,245.522797 
	C213.792191,249.290268 213.792191,253.057739 213.792191,256.980133 
	C224.074066,256.980133 233.850388,257.214020 243.607895,256.886566 
	C248.896866,256.709076 252.091415,252.874878 252.302475,247.764206 
	C252.497894,243.031799 249.550980,238.593628 244.593353,238.346725 
	C234.393051,237.838715 224.149734,238.193970 213.792191,238.193970 
	C213.792191,240.560150 213.792191,242.546890 213.792191,245.522797 
z"/>
<path fill="#EEEEEE" opacity="1.000000" stroke="none" 
	d="
M287.016418,287.800598 
	C282.559509,287.800598 278.599487,287.800598 274.380005,287.800598 
	C274.380005,268.750427 274.380005,250.179657 274.380005,231.322891 
	C291.074707,231.322891 307.654663,231.322891 324.646210,231.322891 
	C324.736725,233.064041 324.827240,234.804840 324.942200,237.015747 
	C310.938599,237.015747 297.198914,237.015747 283.224426,237.015747 
	C283.224426,243.233429 283.224426,249.001633 283.224426,255.149017 
	C293.324829,255.149017 303.402191,255.149017 313.891724,255.149017 
	C313.891724,257.544769 313.891724,259.568542 313.891724,261.925781 
	C303.632538,261.925781 293.530273,261.925781 283.209656,261.925781 
	C283.209656,268.494598 283.209656,274.745148 283.209656,281.375427 
	C296.976013,281.375427 310.571991,281.375427 324.522888,281.375427 
	C324.522888,283.598602 324.522888,285.453766 324.522888,287.800598 
	C312.100922,287.800598 299.807129,287.800598 287.016418,287.800598 
z"/>
<path fill="#F7F7F7" opacity="1.000000" stroke="none" 
	d="
M354.758057,236.531189 
	C356.150513,231.811020 359.049774,230.880081 363.432831,230.865509 
	C367.652466,230.851501 369.401367,232.475662 371.137665,235.987320 
	C379.580322,253.062729 388.321930,269.990356 396.994904,287.043396 
	C388.369965,288.830658 387.633240,288.949249 384.528381,281.145325 
	C381.917725,274.583588 378.247284,272.156494 371.186462,272.889618 
	C364.108490,273.624573 356.890625,273.191132 349.742432,272.982605 
	C346.858002,272.898438 345.001221,273.608063 344.056122,276.452545 
	C343.590271,277.854584 342.760162,279.135925 342.091949,280.470398 
	C338.250031,288.142883 338.249725,288.142731 328.836243,287.489105 
	C337.495972,270.470612 346.044312,253.670990 354.758057,236.531189 
M369.609039,251.941254 
	C367.516937,247.904251 365.424866,243.867233 362.942657,239.077484 
	C358.291504,248.384644 354.051483,256.869141 349.614288,265.748199 
	C358.789459,265.748199 367.305878,265.748199 376.482574,265.748199 
	C374.160461,261.089508 372.048279,256.852051 369.609039,251.941254 
z"/>
<path fill="#EDEDED" opacity="1.000000" stroke="none" 
	d="
M61.136852,274.983826 
	C61.136852,260.191162 61.136852,245.895950 61.136852,231.320190 
	C63.937469,231.320190 66.353622,231.320190 69.071045,231.320190 
	C69.071045,247.805725 69.071045,264.267761 69.071045,281.181244 
	C83.437462,281.181244 97.528702,281.181244 111.964600,281.181244 
	C111.964600,283.528931 111.964600,285.426666 111.964600,287.556641 
	C95.132523,287.556641 78.409325,287.556641 61.136852,287.556641 
	C61.136852,283.380615 61.136852,279.430939 61.136852,274.983826 
z"/>
<path fill="#EAEAEA" opacity="1.000000" stroke="none" 
	d="
M435.997406,281.406311 
	C441.795563,281.406311 447.094360,281.406311 452.627686,281.406311 
	C452.627686,283.651947 452.627686,285.415100 452.627686,287.497803 
	C435.792511,287.497803 419.033691,287.497803 401.975677,287.497803 
	C401.975677,268.820435 401.975677,250.077652 401.975677,231.181976 
	C404.419250,231.181976 406.723846,231.181976 409.598236,231.181976 
	C409.598236,247.832047 409.598236,264.386597 409.598236,281.406281 
	C418.605286,281.406281 427.051666,281.406281 435.997406,281.406311 
z"/>
<path fill="#F5F5F5" opacity="1.000000" stroke="none" 
	d="
M106.192818,246.404297 
	C104.782486,250.395126 102.539207,252.224457 98.056816,250.620163 
	C100.403160,244.612930 102.316772,238.320175 105.404480,232.668945 
	C106.314835,231.002762 110.544868,231.150375 114.784859,230.080338 
	C111.474876,236.352234 108.913567,241.205505 106.192818,246.404297 
z"/>
<path fill="#EDEDED" opacity="1.000000" stroke="none" 
	d="
M308.636230,221.964722 
	C310.356537,221.964691 311.652618,221.964691 312.948730,221.964691 
	C313.016022,222.266953 313.083344,222.569199 313.150665,222.871460 
	C307.343048,224.831711 301.535461,226.791946 294.707947,229.096420 
	C298.287750,222.676300 302.652435,220.970367 308.636230,221.964722 
z"/>
<path fill="#020202" opacity="1.000000" stroke="none" 
	d="
M145.324387,231.002563 
	C165.457352,223.883438 185.041870,235.948959 185.958252,255.680420 
	C186.600784,269.515442 176.382172,282.135651 162.341309,284.847931 
	C148.392746,287.542389 134.122803,279.738373 129.295151,266.775452 
	C124.486046,253.862396 130.229370,239.049103 142.706924,232.207428 
	C143.433411,231.809067 144.200882,231.485458 145.324387,231.002563 
z"/>
<path fill="#020202" opacity="1.000000" stroke="none" 
	d="
M213.792191,245.028229 
	C213.792191,242.546890 213.792191,240.560150 213.792191,238.193970 
	C224.149734,238.193970 234.393051,237.838715 244.593353,238.346725 
	C249.550980,238.593628 252.497894,243.031799 252.302475,247.764206 
	C252.091415,252.874878 248.896866,256.709076 243.607895,256.886566 
	C233.850388,257.214020 224.074066,256.980133 213.792191,256.980133 
	C213.792191,253.057739 213.792191,249.290268 213.792191,245.028229 
z"/>
<path fill="#040404" opacity="1.000000" stroke="none" 
	d="
M369.772583,252.277908 
	C372.048279,256.852051 374.160461,261.089508 376.482574,265.748199 
	C367.305878,265.748199 358.789459,265.748199 349.614288,265.748199 
	C354.051483,256.869141 358.291504,248.384644 362.942657,239.077484 
	C365.424866,243.867233 367.516937,247.904251 369.772583,252.277908 
z"/>
</svg>